<svg width="48" height="48" viewBox="0 0 48 48" fill="none" xmlns="http://www.w3.org/2000/svg">
  <path d="M24 4C12.954 4 4 12.954 4 24C4 35.046 12.954 44 24 44C35.046 44 44 35.046 44 24C44 12.954 35.046 4 24 4ZM24 40C15.178 40 8 32.822 8 24C8 15.178 15.178 8 24 8C32.822 8 40 15.178 40 24C40 32.822 32.822 40 24 40Z" fill="#006775"/>
  <path d="M24 16C19.582 16 16 19.582 16 24C16 28.418 19.582 32 24 32C28.418 32 32 28.418 32 24C32 19.582 28.418 16 24 16ZM24 28C21.794 28 20 26.206 20 24C20 21.794 21.794 20 24 20C26.206 20 28 21.794 28 24C28 26.206 26.206 28 24 28Z" fill="#006775"/>
</svg> 